<svg width="67" height="31" viewBox="0 0 67 31" fill="none" xmlns="http://www.w3.org/2000/svg">
<path fill-rule="evenodd" clip-rule="evenodd" d="M0 30.7711C1.73407 31.0731 12.0997 30.8517 14.7443 30.8517C22.8254 30.8517 21.7414 32.3006 25.9394 25.0272C27.0225 23.1503 28.7279 20.4222 29.6491 18.844C30.9194 16.6672 40.0943 1.15281 40.3818 0.153996C37.9233 0.0924632 35.4383 0.13498 32.9773 0.140969C30.464 0.146957 29.5428 2.21414 28.2038 4.51697C25.4693 9.21927 23.4833 12.7499 20.9667 16.8995C18.286 21.3196 11.8118 18.2421 7.79854 19.2425C5.92809 19.7086 4.4799 22.8628 3.53917 24.4916C2.66753 26.0002 0.521605 29.2394 0 30.7711Z" fill="#FF9600"/>
<path fill-rule="evenodd" clip-rule="evenodd" d="M33.8169 30.819C36.2195 30.8005 36.9631 29.4578 38.2643 27.1963C39.5429 24.9737 40.3756 23.6012 41.4315 21.8012C43.1716 18.8346 46.3426 12.3899 48.2658 11.9378C51.3235 11.2192 58.2117 13.0118 60.4363 10.9062C61.415 9.98037 66.5433 1.19162 66.8225 0.158746C61.9726 0.047733 57.0759 0.150734 52.22 0.150734C44.3368 0.150734 45.1614 -1.45398 41.015 5.80836C39.0811 9.1952 27.0597 29.1912 26.5254 30.819H33.8169Z" fill="#001400"/>
<path fill-rule="evenodd" clip-rule="evenodd" d="M16.9201 14.0035C20.1579 14.0052 20.5415 12.1758 22.8524 8.19476C23.7271 6.68737 27.0997 1.56541 27.3841 0.128906C25.1868 0.195829 22.9674 0.157353 20.7679 0.150691C17.9628 0.142007 17.6121 0.524529 16.1388 3.06039C15.3787 4.36852 10.1105 13.1843 9.87695 13.9978L16.9201 14.0035Z" fill="#FF9600"/>
<path fill-rule="evenodd" clip-rule="evenodd" d="M46.8666 30.8529C48.6967 30.8415 49.3543 30.1647 50.319 28.6336L57.0444 16.9462C54.8921 16.8763 52.7044 16.9431 50.5468 16.9369C46.2937 16.9244 46.5397 18.7839 42.6111 25.214C42.027 26.1703 41.5355 26.938 40.9993 27.8652L39.7453 29.9992C39.4685 30.5964 39.6423 30.1373 39.4414 30.8492L46.8666 30.8529Z" fill="#001400"/>
</svg>
