<svg width="135" height="31" viewBox="0 0 135 31" fill="none" xmlns="http://www.w3.org/2000/svg">
<path d="M39.108 0.389037V30.5357C39.108 30.6395 39.0668 30.739 38.9936 30.8126C38.9201 30.8857 38.8206 30.927 38.717 30.927H32.3489C32.2645 30.9266 32.1827 30.8992 32.1152 30.8489C32.0477 30.7987 31.9979 30.7279 31.9737 30.6472L28.6374 19.4337C28.6095 19.3451 28.5508 19.2694 28.4721 19.22C28.3935 19.1706 28.2997 19.151 28.2079 19.1644C28.1159 19.1778 28.0317 19.2235 27.9705 19.2932C27.9093 19.363 27.8747 19.4523 27.8731 19.5452V30.5357C27.8735 30.587 27.8636 30.6379 27.8441 30.6853C27.8248 30.7328 27.7964 30.776 27.76 30.8123C27.7238 30.8486 27.681 30.8775 27.6337 30.8973C27.5862 30.9168 27.5356 30.927 27.4842 30.927H21.5416C21.4902 30.927 21.4393 30.9168 21.3918 30.8973C21.3446 30.8775 21.3013 30.8488 21.2649 30.8126C21.2287 30.7761 21.1999 30.733 21.1801 30.6856C21.1605 30.6381 21.1504 30.5872 21.1504 30.5357V0.389037C21.1504 0.337685 21.1605 0.287007 21.1803 0.239623C21.1999 0.192238 21.2288 0.149424 21.2651 0.113118C21.3015 0.0770372 21.3446 0.0483634 21.392 0.0290503C21.4395 0.00958744 21.4904 -0.000292821 21.5416 6.60751e-06H27.5912C27.6732 0.000156322 27.7532 0.0262864 27.8199 0.0743447C27.8863 0.122628 27.936 0.190446 27.9619 0.268447L31.621 11.5729C31.6505 11.6605 31.7102 11.7348 31.7893 11.7827C31.8683 11.8307 31.9617 11.8489 32.0531 11.8345C32.1442 11.82 32.2274 11.7738 32.2879 11.7038C32.3484 11.6339 32.3821 11.5447 32.3831 11.4523V0.389037C32.3827 0.337835 32.3927 0.287161 32.412 0.239776C32.4314 0.192541 32.4601 0.149495 32.4963 0.113265C32.5325 0.0771834 32.5755 0.0485132 32.6228 0.0290503C32.67 0.00958744 32.7206 -0.000292821 32.772 6.60751e-06H38.717C38.7682 -0.000292821 38.8189 0.00958744 38.8663 0.0290503C38.9138 0.0483634 38.957 0.0770372 38.9933 0.113118C39.0296 0.149424 39.0585 0.192238 39.0783 0.239623C39.0978 0.287007 39.108 0.337685 39.108 0.389037Z" fill="#FF9600"/>
<path d="M69.541 14.1467L63.2173 9.71796C63.1683 9.68315 63.1282 9.63704 63.1007 9.58344C63.0729 9.52984 63.0585 9.47033 63.0588 9.40992V7.40532C63.0588 6.38621 62.9674 5.73107 62.7851 5.4398C62.6827 5.29577 62.5443 5.18101 62.3844 5.10706C62.2243 5.03317 62.0477 5.00256 61.8721 5.01835C61.6622 5.00907 61.4537 5.05705 61.269 5.15743C61.084 5.25789 60.9298 5.40678 60.8226 5.58831C60.5864 5.96844 60.4676 6.54341 60.4662 7.31354C60.4662 8.30503 60.5995 9.05113 60.866 9.552C61.1328 10.0528 61.857 10.6577 63.0392 11.3668C66.4582 13.4049 68.6116 15.0792 69.4997 16.3895C70.3878 17.6998 70.8325 19.8106 70.8339 22.7223C70.8339 24.8363 70.587 26.3949 70.0929 27.3979C69.5989 28.4012 68.6471 29.2417 67.2374 29.9202C65.8222 30.5913 64.1792 30.927 62.3089 30.927C60.2533 30.927 58.499 30.5361 57.0457 29.7543C55.5928 28.9723 54.6403 27.9803 54.188 26.7778C53.7166 25.509 53.5167 24.5458 53.5124 21.6239C53.5124 19.9294 53.5277 17.9989 53.5798 15.8675C53.5815 15.8014 53.6009 15.737 53.6354 15.6807C53.6699 15.6245 53.7188 15.5784 53.7766 15.5472C53.8348 15.516 53.8998 15.5006 53.9656 15.5029C54.0315 15.505 54.0955 15.5246 54.1511 15.5596L60.4748 19.5691C60.5281 19.6029 60.5719 19.6496 60.6023 19.705C60.6326 19.7603 60.6486 19.8225 60.6489 19.8857V23.2836C60.6489 24.3974 60.7488 25.1115 60.9507 25.4304C61.1528 25.7491 61.5072 25.9064 62.0178 25.9064C62.2447 25.9193 62.4707 25.8695 62.6717 25.763C62.8727 25.6564 63.041 25.497 63.1587 25.3015C63.4093 24.8969 63.5338 24.2976 63.5324 23.5044C63.5324 21.7573 63.2956 20.6135 62.8218 20.0734C62.348 19.5334 61.1492 18.6381 59.2255 17.3874C57.3145 16.1164 56.0491 15.1935 55.429 14.6184C54.7457 13.9481 54.2197 13.1335 53.8882 12.2337C53.4797 11.2146 53.2754 9.91812 53.2754 8.3444C53.2754 6.07024 53.5652 4.40767 54.1448 3.35652C54.7242 2.30545 55.6579 1.48277 56.9459 0.888855C58.2368 0.297783 59.794 0.00142229 61.6179 0C63.6128 0 65.3136 0.323984 66.7203 0.971798C68.1273 1.61976 69.0573 2.43279 69.5105 3.4111C70.0778 4.63628 70.2125 5.61893 70.195 8.43378C70.1799 10.6177 70.1515 12.4499 70.1256 13.8519C70.1242 13.9195 70.1048 13.9856 70.0687 14.0428C70.0328 14.1001 69.9822 14.1464 69.922 14.1767C69.8616 14.2071 69.7945 14.2202 69.7273 14.2151C69.6602 14.2097 69.5957 14.1861 69.541 14.1467Z" fill="#001400"/>
<path d="M91.1838 18.0025C91.1838 20.9861 91.1117 23.0964 90.967 24.3334C90.8283 25.5927 90.3572 26.7915 89.6024 27.8053C88.8475 28.8193 87.8365 29.6113 86.6744 30.0992C85.2884 30.6755 83.7987 30.9564 82.2994 30.9245C80.8439 30.9475 79.398 30.6827 78.0439 30.1452C76.8688 29.6723 75.8409 28.8918 75.0672 27.8843C74.2931 26.8769 73.8015 25.6797 73.6429 24.4165C73.4982 23.194 73.4258 21.0544 73.4258 17.9981V12.9245C73.4258 9.94231 73.4982 7.83193 73.6429 6.59327C73.7814 5.33425 74.2525 4.13557 75.0075 3.12163C75.7624 2.10769 76.7733 1.31554 77.9354 0.8277C79.3206 0.2513 80.8096 -0.0296406 82.3082 0.00247309C83.7639 -0.0208075 85.2098 0.243963 86.5638 0.781887C87.7392 1.25491 88.7674 2.03574 89.5417 3.04347C90.3159 4.0512 90.808 5.24907 90.967 6.51265C91.1117 7.73515 91.1838 9.87389 91.1838 12.9288V18.0025ZM83.5125 8.24814C83.5125 6.86845 83.4402 5.98573 83.2955 5.59992C83.1509 5.21433 82.8376 5.02157 82.3559 5.02157C82.1756 5.01319 81.9962 5.05189 81.835 5.13363C81.6738 5.2156 81.5362 5.33777 81.4357 5.48868C81.223 5.80166 81.1168 6.72135 81.1168 8.24814V22.1111C81.1168 23.833 81.1891 24.8961 81.3338 25.3006C81.4784 25.7052 81.8033 25.9068 82.3082 25.9054C82.5301 25.9277 82.7528 25.8698 82.9364 25.7422C83.1202 25.6147 83.2527 25.4257 83.3107 25.209C83.4553 24.7434 83.5278 23.6372 83.5278 21.8906L83.5125 8.24814Z" fill="#001400"/>
<path d="M111.959 0.0664211C112.06 0.0664211 112.156 0.106326 112.227 0.177515C112.299 0.248779 112.339 0.34534 112.339 0.445948V20.2415C112.339 22.5284 112.265 24.135 112.117 25.0617C111.91 26.1064 111.453 27.0854 110.785 27.9145C110.035 28.9022 109.034 29.6695 107.885 30.1349C106.536 30.6661 105.094 30.9229 103.644 30.8897C102.009 30.9245 100.384 30.6222 98.8708 30.0016C97.4899 29.4097 96.4573 28.6324 95.7734 27.6704C95.1174 26.7812 94.7008 25.7385 94.5636 24.6421C94.4392 23.5792 94.377 21.3443 94.377 17.9369V0.445948C94.3769 0.396019 94.3863 0.346462 94.4053 0.30035C94.4243 0.254088 94.4522 0.212243 94.4876 0.176835C94.5228 0.141578 94.5647 0.113662 94.611 0.094573C94.6571 0.075709 94.7067 0.065972 94.7566 0.0664211H101.846C101.896 0.065972 101.945 0.075709 101.991 0.094573C102.038 0.113662 102.08 0.141578 102.115 0.176835C102.15 0.212243 102.178 0.254088 102.197 0.30035C102.216 0.346462 102.226 0.396019 102.225 0.445948V22.7015C102.225 24.0204 102.3 24.8626 102.448 25.2281C102.51 25.4032 102.63 25.5519 102.786 25.6516C102.943 25.7515 103.128 25.7962 103.313 25.7787C103.811 25.7787 104.133 25.5766 104.275 25.1727C104.417 24.7686 104.497 23.816 104.497 22.3108V0.445948C104.497 0.396019 104.506 0.346462 104.525 0.30035C104.544 0.254088 104.572 0.212243 104.607 0.176835C104.643 0.141578 104.685 0.113662 104.731 0.094573C104.777 0.075709 104.826 0.065972 104.876 0.0664211H111.959Z" fill="#001400"/>
<path d="M134.416 0.5118L130.038 13.8454C130.015 13.9195 130.015 13.9986 130.038 14.0728L134.869 30.4243C134.885 30.4827 134.889 30.5442 134.877 30.6039C134.867 30.6638 134.843 30.7202 134.805 30.7688C134.769 30.8175 134.723 30.857 134.669 30.8846C134.615 30.9119 134.556 30.9266 134.496 30.9269H127.061C126.974 30.9267 126.89 30.8974 126.822 30.8433C126.754 30.7892 126.706 30.7139 126.686 30.6289L124.286 20.7999C124.261 20.709 124.205 20.6302 124.128 20.5776C124.05 20.5251 123.956 20.5024 123.863 20.5137C123.771 20.5249 123.685 20.5695 123.622 20.6392C123.559 20.709 123.524 20.799 123.522 20.8932V30.5359C123.522 30.6394 123.481 30.739 123.408 30.8125C123.335 30.8856 123.236 30.9269 123.133 30.9269H115.918C115.815 30.9269 115.716 30.8856 115.643 30.8125C115.57 30.739 115.529 30.6394 115.529 30.5359V0.388958C115.529 0.337756 115.539 0.286928 115.559 0.239544C115.578 0.192309 115.607 0.149342 115.643 0.113186C115.679 0.0769548 115.722 0.0484343 115.769 0.0289714C115.817 0.00950854 115.867 -0.000218213 115.918 8.12155e-05H123.133C123.184 -0.000218213 123.234 0.00950854 123.281 0.0289714C123.328 0.0484343 123.371 0.0769548 123.407 0.113186C123.444 0.149342 123.472 0.192309 123.492 0.239544C123.511 0.286928 123.522 0.337756 123.522 0.388958V9.33791C123.523 9.43073 123.557 9.52003 123.618 9.5898C123.679 9.65964 123.763 9.70523 123.854 9.71878C123.946 9.73218 124.039 9.71242 124.117 9.66301C124.195 9.61368 124.253 9.53793 124.281 9.44937L126.993 0.277499C127.018 0.197252 127.067 0.127039 127.134 0.0771095C127.202 0.0271798 127.283 0.00023093 127.366 8.12155e-05H134.039C134.101 -0.00119136 134.162 0.0125081 134.218 0.0399807C134.274 0.0675281 134.322 0.107947 134.358 0.158027C134.396 0.208106 134.42 0.266348 134.43 0.327881C134.44 0.389339 134.436 0.452363 134.416 0.5118Z" fill="#001400"/>
<path d="M49.8809 30.9654H42.6978C42.4775 30.9654 42.2988 30.7868 42.2988 30.5663V10.5475C42.2988 10.3886 42.3932 10.2447 42.539 10.1814L49.7221 7.06468C49.9857 6.9503 50.2799 7.14351 50.2799 7.43066V30.5663C50.2799 30.7868 50.1013 30.9654 49.8809 30.9654Z" fill="#FF9600"/>
<path d="M42.6978 0.0390625H49.8809C50.1013 0.0390625 50.2799 0.217749 50.2799 0.438203V5.12373C50.2799 5.2831 50.185 5.4272 50.0385 5.49023L42.8555 8.57892C42.592 8.69218 42.2988 8.49904 42.2988 8.21234V0.438203C42.2988 0.217749 42.4775 0.0390625 42.6978 0.0390625Z" fill="#001400"/>
<path d="M17.5753 0.0664211C17.6253 0.065972 17.6749 0.075709 17.721 0.094573C17.7673 0.113662 17.8091 0.141578 17.8444 0.176835C17.8798 0.212243 17.9077 0.254088 17.9266 0.30035C17.9457 0.346462 17.9554 0.396019 17.955 0.445948V20.2415C17.955 22.5284 17.8809 24.135 17.733 25.0617C17.5272 26.1067 17.07 27.0859 16.4008 27.9145C15.6525 28.9027 14.6504 29.67 13.5014 30.1349C12.1567 30.6602 10.7213 30.9129 9.27832 30.8786C7.64306 30.9133 6.01814 30.6111 4.50498 29.9905C3.12386 29.3984 2.08791 28.6216 1.39653 27.6594C0.740036 26.7705 0.323234 25.7275 0.186545 24.6309C0.0623571 23.5682 1.72732e-06 21.3331 1.72732e-06 17.9259V0.445948C-0.000147987 0.396019 0.00943577 0.346462 0.0282998 0.30035C0.0473883 0.254088 0.0753118 0.212243 0.11057 0.176835C0.145827 0.141578 0.187972 0.113662 0.234084 0.094573C0.280346 0.075709 0.329895 0.065972 0.379675 0.0664211H7.46895C7.51888 0.065972 7.56836 0.075709 7.61462 0.094573C7.66073 0.113662 7.70266 0.141578 7.73791 0.176835C7.77332 0.212243 7.80124 0.254088 7.8204 0.30035C7.83927 0.346462 7.84885 0.396019 7.84847 0.445948V22.7015C7.84847 24.0204 7.92251 24.8626 8.07057 25.2281C8.13338 25.4032 8.25255 25.5519 8.40938 25.6516C8.5659 25.7515 8.75155 25.7962 8.9366 25.7787C9.43373 25.7787 9.75576 25.5766 9.89791 25.1727C10.0399 24.7686 10.1199 23.816 10.1199 22.3108V0.445948C10.1195 0.396019 10.1291 0.346462 10.1482 0.30035C10.1672 0.254088 10.1951 0.212243 10.2305 0.176835C10.2658 0.141578 10.3076 0.113662 10.3539 0.094573C10.4 0.075709 10.4495 0.065972 10.4995 0.0664211H17.5753Z" fill="#FF9600"/>
</svg>
